<?xml version="1.0" encoding="UTF-8"?>
<svg id="Layer_1" data-name="Layer 1" xmlns="http://www.w3.org/2000/svg" xmlns:xlink="http://www.w3.org/1999/xlink" version="1.1" viewBox="0 0 429.8 102.2">
  <defs>
    <style>
      .cls-1 {
        isolation: isolate;
      }

      .cls-2 {
        fill: #fff;
        stroke-width: 0px;
      }
    </style>
  </defs>
  <g>
    <path class="cls-2" d="M127.5,26.6c-3.8-2.1-8-3.2-12.6-3.2s-8.9,1.1-12.7,3.2c-3.7,2.1-6.7,5.2-8.9,9.3-2.2,4.1-3.3,9-3.3,14.7s1.1,10.7,3.3,14.7c2.2,4.1,5.1,7.1,8.9,9.3,3.7,2.1,8,3.2,12.7,3.2s8.9-1.1,12.6-3.2c3.8-2.1,6.7-5.2,8.9-9.3s3.3-9,3.3-14.7-1.1-10.7-3.3-14.7c-2.2-4.1-5.1-7.1-8.9-9.3ZM126.6,60.1c-1.1,2.6-2.7,4.5-4.7,5.8-2,1.3-4.4,2-7.1,2s-5.1-.7-7.1-2c-2-1.3-3.6-3.3-4.7-5.8-1.1-2.6-1.7-5.7-1.7-9.5s.6-6.9,1.7-9.5,2.7-4.5,4.7-5.8,4.4-2,7.1-2,5.1.7,7.1,2,3.6,3.3,4.7,5.8,1.7,5.7,1.7,9.5-.6,6.9-1.7,9.5Z"/>
    <polygon class="cls-2" points="162.6 65.8 162.2 65.8 153.9 37.4 142.3 37.4 156.2 77.1 168.6 77.1 182.5 37.4 170.8 37.4 162.6 65.8"/>
    <path class="cls-2" d="M215.5,41.9c-1.7-1.7-3.7-2.9-5.9-3.8-2.3-.8-4.7-1.3-7.3-1.3-3.9,0-7.3.9-10.2,2.6-2.9,1.7-5.1,4.1-6.7,7.2-1.6,3.1-2.4,6.7-2.4,10.8s.8,7.8,2.4,10.9c1.6,3.1,3.8,5.4,6.8,7.1,2.9,1.7,6.5,2.5,10.5,2.5s6.2-.5,8.7-1.5c2.5-1,4.6-2.4,6.2-4.2,1.6-1.8,2.7-4,3.2-6.4l-10.2-.7c-.4,1-.9,1.8-1.7,2.5s-1.6,1.2-2.6,1.6-2.1.5-3.4.5c-1.8,0-3.4-.4-4.8-1.2-1.3-.8-2.4-1.9-3.1-3.3-.7-1.4-1.1-3.1-1.1-5.1h0s27.1,0,27.1,0v-3c0-3.4-.5-6.3-1.4-8.9s-2.3-4.6-4-6.3ZM193.9,53.2c0-1.4.4-2.7,1.1-3.9.7-1.3,1.7-2.3,3-3.1,1.3-.8,2.8-1.2,4.4-1.2s3,.3,4.2,1c1.2.7,2.2,1.7,2.9,2.9.7,1.2,1,2.6,1,4.2h-16.7Z"/>
    <path class="cls-2" d="M249.9,37.2c-.5-.1-1-.2-1.7-.3-.6,0-1.2-.1-1.8-.1-2.2,0-4.2.6-5.9,1.9s-2.9,3.1-3.6,5.6h-.4v-6.9h-10.7v39.7h11v-22.5c0-1.6.4-3.1,1.1-4.3.7-1.2,1.7-2.2,3-2.9s2.7-1,4.3-1,1.6,0,2.5.2c.9.1,1.6.3,2.1.4v-9.8Z"/>
    <path class="cls-2" d="M282.4,41.9c-1.7-1.7-3.7-2.9-5.9-3.8-2.3-.8-4.7-1.3-7.3-1.3-3.9,0-7.3.9-10.2,2.6-2.9,1.7-5.1,4.1-6.7,7.2-1.6,3.1-2.4,6.7-2.4,10.8s.8,7.8,2.4,10.9c1.6,3.1,3.8,5.4,6.8,7.1s6.5,2.5,10.5,2.5,6.2-.5,8.7-1.5,4.6-2.4,6.2-4.2,2.7-4,3.2-6.4l-10.2-.7c-.4,1-.9,1.8-1.7,2.5-.7.7-1.6,1.2-2.6,1.6s-2.1.5-3.4.5c-1.8,0-3.4-.4-4.8-1.2-1.3-.8-2.4-1.9-3.1-3.3-.7-1.4-1.1-3.1-1.1-5.1h0s27.1,0,27.1,0v-3c0-3.4-.5-6.3-1.4-8.9s-2.3-4.6-4-6.3ZM260.8,53.2c0-1.4.4-2.7,1.1-3.9.7-1.3,1.7-2.3,3-3.1,1.3-.8,2.8-1.2,4.4-1.2s3,.3,4.2,1c1.2.7,2.2,1.7,2.9,2.9s1,2.6,1,4.2h-16.7Z"/>
    <path class="cls-2" d="M321.5,40c-1.6-1.1-3.4-1.9-5.4-2.4-2-.5-4.1-.8-6.3-.8-3.2,0-6,.5-8.4,1.4s-4.4,2.3-5.9,4.1-2.5,3.9-3.1,6.3l10.2.8c.4-1.3,1.2-2.4,2.3-3.3,1.2-.9,2.8-1.3,4.7-1.3s3.3.4,4.4,1.3c1,.9,1.5,2.2,1.5,3.8v.2c0,.8-.3,1.5-1,1.9-.6.4-1.7.8-3.1,1s-3.3.4-5.6.7c-2,.2-3.8.5-5.6,1-1.8.5-3.4,1.2-4.8,2.1-1.4.9-2.5,2.1-3.3,3.6s-1.2,3.4-1.2,5.6.6,4.8,1.7,6.6c1.1,1.8,2.7,3.1,4.7,4,2,.9,4.2,1.3,6.8,1.3s3.7-.3,5.2-.8c1.5-.5,2.8-1.3,3.9-2.2,1.1-.9,1.9-2,2.6-3.3h.3v5.5h10.5v-26.8c0-2.4-.5-4.4-1.4-6.1-.9-1.7-2.2-3.1-3.7-4.2ZM315.7,62.9c0,1.4-.4,2.6-1.1,3.8s-1.7,2-2.9,2.6c-1.2.6-2.7,1-4.3,1s-3.1-.4-4.2-1.2c-1.1-.8-1.6-1.9-1.6-3.4s.3-1.9.8-2.6c.5-.7,1.3-1.3,2.2-1.7s2.1-.7,3.4-.9c.6,0,1.3-.2,2-.3s1.5-.2,2.2-.4,1.4-.3,2-.5c.6-.2,1.1-.4,1.4-.6v4.2Z"/>
    <path class="cls-2" d="M355.5,54l-7.2-1.4c-1.8-.4-3.1-.9-3.9-1.6-.8-.7-1.1-1.5-1.1-2.4s.6-2.1,1.8-2.9c1.2-.7,2.6-1.1,4.3-1.1s2.4.2,3.3.6c.9.4,1.7,1,2.2,1.7.6.7.9,1.5,1.1,2.3l10.1-.6c-.5-3.7-2.2-6.5-5.1-8.7-2.9-2.1-6.8-3.2-11.9-3.2s-6.4.5-8.9,1.5c-2.5,1-4.5,2.4-5.9,4.3-1.4,1.8-2.1,4-2.1,6.6s.9,5.4,2.8,7.3c1.9,1.9,4.8,3.3,8.7,4l6.9,1.4c1.7.3,3,.8,3.8,1.5.8.6,1.2,1.5,1.3,2.5,0,1.2-.6,2.2-1.8,2.9-1.2.8-2.7,1.1-4.7,1.1s-3.6-.4-4.8-1.3c-1.3-.8-2.1-2.1-2.4-3.7l-10.8.6c.5,3.8,2.4,6.8,5.5,9,3.1,2.2,7.3,3.3,12.6,3.3s6.5-.5,9.1-1.6c2.6-1.1,4.7-2.6,6.3-4.6,1.5-2,2.3-4.2,2.3-6.9s-.9-5.2-2.8-6.9c-1.9-1.8-4.8-3-8.6-3.8Z"/>
    <path class="cls-2" d="M397.2,37.4l-8.3,29.2h-.4l-8.2-29.2h-11.6l14.3,40.9-.6,1.7c-.5,1.2-1.1,2.1-1.9,2.6-.8.5-1.7.8-2.7.7-1,0-2.2-.2-3.5-.6l-2.5,8.2c.8.3,1.8.6,3,.8,1.2.2,2.5.3,3.9.3,2.7,0,5.1-.4,7-1.3,1.9-.9,3.5-2.1,4.8-3.7s2.3-3.5,3-5.6l15.4-44h-11.7Z"/>
  </g>
  <image class="cls-1" width="149" height="184" transform="translate(23.2 17.7) scale(.3)" xlink:href="overeasy assets/branding/egg_logo.png"/>
</svg>